<mxfile host="Electron" modified="2024-05-12T10:47:05.634Z" agent="Mozilla/5.0 (X11; Linux x86_64) AppleWebKit/537.36 (KHTML, like Gecko) draw.io/24.2.5 Chrome/120.0.6099.109 Electron/28.1.0 Safari/537.36" etag="lBy7JMDHkmU0aOlzLGJg" version="24.2.5" type="device">
  <diagram name="Pagina-1" id="si0wQ0l1tiX7Fm2jgNS1">
    <mxGraphModel dx="574" dy="336" grid="1" gridSize="10" guides="1" tooltips="1" connect="1" arrows="1" fold="1" page="1" pageScale="1" pageWidth="1169" pageHeight="827" math="0" shadow="0">
      <root>
        <mxCell id="0" />
        <mxCell id="1" parent="0" />
        <mxCell id="59N4v2ahyxZkwCQFcbo--1" value="Cliente" style="whiteSpace=wrap;html=1;align=center;" parent="1" vertex="1">
          <mxGeometry x="520" y="240" width="100" height="40" as="geometry" />
        </mxCell>
        <mxCell id="59N4v2ahyxZkwCQFcbo--2" value="ClienteFF" style="whiteSpace=wrap;html=1;align=center;" parent="1" vertex="1">
          <mxGeometry x="520" y="340" width="100" height="40" as="geometry" />
        </mxCell>
        <mxCell id="59N4v2ahyxZkwCQFcbo--3" value="" style="shape=flexArrow;endArrow=classic;html=1;rounded=0;exitX=0.5;exitY=0;exitDx=0;exitDy=0;entryX=0.5;entryY=1;entryDx=0;entryDy=0;" parent="1" source="59N4v2ahyxZkwCQFcbo--2" target="59N4v2ahyxZkwCQFcbo--1" edge="1">
          <mxGeometry width="50" height="50" relative="1" as="geometry">
            <mxPoint x="560" y="460" as="sourcePoint" />
            <mxPoint x="610" y="410" as="targetPoint" />
          </mxGeometry>
        </mxCell>
        <mxCell id="59N4v2ahyxZkwCQFcbo--4" value="" style="endArrow=oval;html=1;rounded=0;endFill=1;" parent="1" edge="1">
          <mxGeometry width="50" height="50" relative="1" as="geometry">
            <mxPoint x="526" y="240" as="sourcePoint" />
            <mxPoint x="526" y="190" as="targetPoint" />
          </mxGeometry>
        </mxCell>
        <mxCell id="59N4v2ahyxZkwCQFcbo--5" value="" style="endArrow=oval;html=1;rounded=0;endFill=0;" parent="1" edge="1">
          <mxGeometry width="50" height="50" relative="1" as="geometry">
            <mxPoint x="536" y="240" as="sourcePoint" />
            <mxPoint x="536" y="200" as="targetPoint" />
          </mxGeometry>
        </mxCell>
        <mxCell id="59N4v2ahyxZkwCQFcbo--6" value="" style="endArrow=oval;html=1;rounded=0;endFill=0;" parent="1" edge="1">
          <mxGeometry width="50" height="50" relative="1" as="geometry">
            <mxPoint x="546" y="240" as="sourcePoint" />
            <mxPoint x="546" y="210" as="targetPoint" />
          </mxGeometry>
        </mxCell>
        <mxCell id="59N4v2ahyxZkwCQFcbo--7" value="cf" style="text;html=1;align=center;verticalAlign=middle;whiteSpace=wrap;rounded=0;" parent="1" vertex="1">
          <mxGeometry x="510" y="185" width="60" height="10" as="geometry" />
        </mxCell>
        <mxCell id="59N4v2ahyxZkwCQFcbo--8" value="nome" style="text;html=1;align=center;verticalAlign=middle;whiteSpace=wrap;rounded=0;" parent="1" vertex="1">
          <mxGeometry x="529" y="195" width="60" height="10" as="geometry" />
        </mxCell>
        <mxCell id="59N4v2ahyxZkwCQFcbo--9" value="cognome" style="text;html=1;align=center;verticalAlign=middle;whiteSpace=wrap;rounded=0;" parent="1" vertex="1">
          <mxGeometry x="548" y="205" width="60" height="10" as="geometry" />
        </mxCell>
        <mxCell id="59N4v2ahyxZkwCQFcbo--10" value="Indirizzo" style="whiteSpace=wrap;html=1;align=center;" parent="1" vertex="1">
          <mxGeometry x="830" y="240" width="100" height="40" as="geometry" />
        </mxCell>
        <mxCell id="59N4v2ahyxZkwCQFcbo--11" value="Risiede" style="shape=rhombus;perimeter=rhombusPerimeter;whiteSpace=wrap;html=1;align=center;" parent="1" vertex="1">
          <mxGeometry x="680" y="240" width="90" height="40" as="geometry" />
        </mxCell>
        <mxCell id="59N4v2ahyxZkwCQFcbo--15" value="" style="endArrow=none;html=1;rounded=0;exitX=1;exitY=0.5;exitDx=0;exitDy=0;exitPerimeter=0;entryX=0;entryY=0.5;entryDx=0;entryDy=0;entryPerimeter=0;" parent="1" source="59N4v2ahyxZkwCQFcbo--1" target="59N4v2ahyxZkwCQFcbo--11" edge="1">
          <mxGeometry width="50" height="50" relative="1" as="geometry">
            <mxPoint x="650" y="280" as="sourcePoint" />
            <mxPoint x="700" y="230" as="targetPoint" />
          </mxGeometry>
        </mxCell>
        <mxCell id="59N4v2ahyxZkwCQFcbo--16" value="" style="endArrow=none;html=1;rounded=0;entryX=0;entryY=0.5;entryDx=0;entryDy=0;entryPerimeter=0;exitX=1;exitY=0.5;exitDx=0;exitDy=0;exitPerimeter=0;" parent="1" source="59N4v2ahyxZkwCQFcbo--11" target="59N4v2ahyxZkwCQFcbo--10" edge="1">
          <mxGeometry width="50" height="50" relative="1" as="geometry">
            <mxPoint x="690" y="270" as="sourcePoint" />
            <mxPoint x="740" y="220" as="targetPoint" />
          </mxGeometry>
        </mxCell>
        <mxCell id="59N4v2ahyxZkwCQFcbo--17" value="(1,1)" style="text;html=1;align=center;verticalAlign=middle;whiteSpace=wrap;rounded=0;" parent="1" vertex="1">
          <mxGeometry x="650" y="240" width="60" height="10" as="geometry" />
        </mxCell>
        <mxCell id="59N4v2ahyxZkwCQFcbo--19" value="(0,N)" style="text;html=1;align=center;verticalAlign=middle;whiteSpace=wrap;rounded=0;" parent="1" vertex="1">
          <mxGeometry x="740" y="240" width="60" height="10" as="geometry" />
        </mxCell>
        <mxCell id="59N4v2ahyxZkwCQFcbo--20" value="" style="endArrow=oval;html=1;rounded=0;endFill=0;" parent="1" edge="1">
          <mxGeometry width="50" height="50" relative="1" as="geometry">
            <mxPoint x="836" y="240" as="sourcePoint" />
            <mxPoint x="836" y="190" as="targetPoint" />
          </mxGeometry>
        </mxCell>
        <mxCell id="59N4v2ahyxZkwCQFcbo--21" value="" style="endArrow=oval;html=1;rounded=0;endFill=0;" parent="1" edge="1">
          <mxGeometry width="50" height="50" relative="1" as="geometry">
            <mxPoint x="846" y="240" as="sourcePoint" />
            <mxPoint x="846" y="200" as="targetPoint" />
          </mxGeometry>
        </mxCell>
        <mxCell id="59N4v2ahyxZkwCQFcbo--22" value="" style="endArrow=oval;html=1;rounded=0;endFill=0;" parent="1" edge="1">
          <mxGeometry width="50" height="50" relative="1" as="geometry">
            <mxPoint x="856" y="240" as="sourcePoint" />
            <mxPoint x="856" y="210" as="targetPoint" />
          </mxGeometry>
        </mxCell>
        <mxCell id="59N4v2ahyxZkwCQFcbo--23" value="via_pza" style="text;html=1;align=center;verticalAlign=middle;whiteSpace=wrap;rounded=0;" parent="1" vertex="1">
          <mxGeometry x="843" y="194" width="60" height="10" as="geometry" />
        </mxCell>
        <mxCell id="59N4v2ahyxZkwCQFcbo--24" value="civico" style="text;html=1;align=center;verticalAlign=middle;whiteSpace=wrap;rounded=0;" parent="1" vertex="1">
          <mxGeometry x="847" y="204" width="60" height="10" as="geometry" />
        </mxCell>
        <mxCell id="59N4v2ahyxZkwCQFcbo--25" value="cap" style="text;html=1;align=center;verticalAlign=middle;whiteSpace=wrap;rounded=0;" parent="1" vertex="1">
          <mxGeometry x="823" y="184" width="60" height="10" as="geometry" />
        </mxCell>
        <mxCell id="59N4v2ahyxZkwCQFcbo--26" value="CittaInd" style="shape=rhombus;perimeter=rhombusPerimeter;whiteSpace=wrap;html=1;align=center;" parent="1" vertex="1">
          <mxGeometry x="990" y="240" width="90" height="40" as="geometry" />
        </mxCell>
        <mxCell id="59N4v2ahyxZkwCQFcbo--27" value="Citta" style="whiteSpace=wrap;html=1;align=center;" parent="1" vertex="1">
          <mxGeometry x="985" y="340" width="100" height="40" as="geometry" />
        </mxCell>
        <mxCell id="59N4v2ahyxZkwCQFcbo--28" value="" style="endArrow=oval;html=1;rounded=0;endFill=0;exitX=1;exitY=0.25;exitDx=0;exitDy=0;" parent="1" source="59N4v2ahyxZkwCQFcbo--27" edge="1">
          <mxGeometry width="50" height="50" relative="1" as="geometry">
            <mxPoint x="1110" y="380" as="sourcePoint" />
            <mxPoint x="1110" y="350" as="targetPoint" />
          </mxGeometry>
        </mxCell>
        <mxCell id="59N4v2ahyxZkwCQFcbo--29" value="nome" style="text;html=1;align=center;verticalAlign=middle;whiteSpace=wrap;rounded=0;" parent="1" vertex="1">
          <mxGeometry x="1102" y="344" width="60" height="10" as="geometry" />
        </mxCell>
        <mxCell id="59N4v2ahyxZkwCQFcbo--30" value="StatoCitta" style="shape=rhombus;perimeter=rhombusPerimeter;whiteSpace=wrap;html=1;align=center;" parent="1" vertex="1">
          <mxGeometry x="990" y="440" width="90" height="40" as="geometry" />
        </mxCell>
        <mxCell id="59N4v2ahyxZkwCQFcbo--32" value="Stato" style="whiteSpace=wrap;html=1;align=center;" parent="1" vertex="1">
          <mxGeometry x="985" y="540" width="100" height="40" as="geometry" />
        </mxCell>
        <mxCell id="59N4v2ahyxZkwCQFcbo--33" value="" style="endArrow=oval;html=1;rounded=0;endFill=1;exitX=1;exitY=0.25;exitDx=0;exitDy=0;" parent="1" source="59N4v2ahyxZkwCQFcbo--32" edge="1">
          <mxGeometry width="50" height="50" relative="1" as="geometry">
            <mxPoint x="1110" y="580" as="sourcePoint" />
            <mxPoint x="1110" y="550" as="targetPoint" />
          </mxGeometry>
        </mxCell>
        <mxCell id="59N4v2ahyxZkwCQFcbo--34" value="nome" style="text;html=1;align=center;verticalAlign=middle;whiteSpace=wrap;rounded=0;" parent="1" vertex="1">
          <mxGeometry x="1102" y="544" width="60" height="10" as="geometry" />
        </mxCell>
        <mxCell id="59N4v2ahyxZkwCQFcbo--35" value="" style="endArrow=none;html=1;rounded=0;entryX=0.5;entryY=1;entryDx=0;entryDy=0;exitX=0.5;exitY=0;exitDx=0;exitDy=0;exitPerimeter=0;" parent="1" source="59N4v2ahyxZkwCQFcbo--30" target="59N4v2ahyxZkwCQFcbo--27" edge="1">
          <mxGeometry width="50" height="50" relative="1" as="geometry">
            <mxPoint x="920" y="490" as="sourcePoint" />
            <mxPoint x="1035" y="400" as="targetPoint" />
          </mxGeometry>
        </mxCell>
        <mxCell id="59N4v2ahyxZkwCQFcbo--36" value="" style="endArrow=none;html=1;rounded=0;entryX=0.5;entryY=1;entryDx=0;entryDy=0;exitX=0.5;exitY=0;exitDx=0;exitDy=0;exitPerimeter=0;" parent="1" edge="1">
          <mxGeometry width="50" height="50" relative="1" as="geometry">
            <mxPoint x="1035" y="540" as="sourcePoint" />
            <mxPoint x="1035" y="480" as="targetPoint" />
          </mxGeometry>
        </mxCell>
        <mxCell id="59N4v2ahyxZkwCQFcbo--37" value="" style="endArrow=none;html=1;rounded=0;entryX=0;entryY=0.5;entryDx=0;entryDy=0;entryPerimeter=0;exitX=1;exitY=0.5;exitDx=0;exitDy=0;" parent="1" source="59N4v2ahyxZkwCQFcbo--10" target="59N4v2ahyxZkwCQFcbo--26" edge="1">
          <mxGeometry width="50" height="50" relative="1" as="geometry">
            <mxPoint x="880" y="350" as="sourcePoint" />
            <mxPoint x="930" y="300" as="targetPoint" />
          </mxGeometry>
        </mxCell>
        <mxCell id="59N4v2ahyxZkwCQFcbo--38" value="" style="endArrow=none;html=1;rounded=0;entryX=0.5;entryY=1;entryDx=0;entryDy=0;exitX=0.5;exitY=0;exitDx=0;exitDy=0;" parent="1" source="59N4v2ahyxZkwCQFcbo--27" target="59N4v2ahyxZkwCQFcbo--26" edge="1">
          <mxGeometry width="50" height="50" relative="1" as="geometry">
            <mxPoint x="940" y="270" as="sourcePoint" />
            <mxPoint x="1000" y="270" as="targetPoint" />
          </mxGeometry>
        </mxCell>
        <mxCell id="59N4v2ahyxZkwCQFcbo--39" value="(1,1)" style="text;html=1;align=center;verticalAlign=middle;whiteSpace=wrap;rounded=0;" parent="1" vertex="1">
          <mxGeometry x="960" y="240" width="60" height="10" as="geometry" />
        </mxCell>
        <mxCell id="59N4v2ahyxZkwCQFcbo--40" value="(0,N)" style="text;html=1;align=center;verticalAlign=middle;whiteSpace=wrap;rounded=0;" parent="1" vertex="1">
          <mxGeometry x="980" y="280" width="60" height="10" as="geometry" />
        </mxCell>
        <mxCell id="59N4v2ahyxZkwCQFcbo--41" value="(1,1)" style="text;html=1;align=center;verticalAlign=middle;whiteSpace=wrap;rounded=0;" parent="1" vertex="1">
          <mxGeometry x="985" y="430" width="60" height="10" as="geometry" />
        </mxCell>
        <mxCell id="59N4v2ahyxZkwCQFcbo--42" value="(0,N)" style="text;html=1;align=center;verticalAlign=middle;whiteSpace=wrap;rounded=0;" parent="1" vertex="1">
          <mxGeometry x="985" y="480" width="60" height="10" as="geometry" />
        </mxCell>
        <mxCell id="59N4v2ahyxZkwCQFcbo--43" value="" style="endArrow=oval;html=1;rounded=0;endFill=1;" parent="1" edge="1">
          <mxGeometry width="50" height="50" relative="1" as="geometry">
            <mxPoint x="520" y="348.83" as="sourcePoint" />
            <mxPoint x="490" y="348.83" as="targetPoint" />
          </mxGeometry>
        </mxCell>
        <mxCell id="59N4v2ahyxZkwCQFcbo--44" value="" style="endArrow=oval;html=1;rounded=0;endFill=0;" parent="1" edge="1">
          <mxGeometry width="50" height="50" relative="1" as="geometry">
            <mxPoint x="520" y="370" as="sourcePoint" />
            <mxPoint x="490" y="370" as="targetPoint" />
          </mxGeometry>
        </mxCell>
        <mxCell id="59N4v2ahyxZkwCQFcbo--45" value="codice" style="text;html=1;align=center;verticalAlign=middle;whiteSpace=wrap;rounded=0;" parent="1" vertex="1">
          <mxGeometry x="436" y="344" width="60" height="10" as="geometry" />
        </mxCell>
        <mxCell id="59N4v2ahyxZkwCQFcbo--46" value="dataAff" style="text;html=1;align=center;verticalAlign=middle;whiteSpace=wrap;rounded=0;" parent="1" vertex="1">
          <mxGeometry x="434" y="365" width="60" height="10" as="geometry" />
        </mxCell>
        <mxCell id="59N4v2ahyxZkwCQFcbo--47" value="Effettua" style="shape=rhombus;perimeter=rhombusPerimeter;whiteSpace=wrap;html=1;align=center;" parent="1" vertex="1">
          <mxGeometry x="325" y="240" width="90" height="40" as="geometry" />
        </mxCell>
        <mxCell id="59N4v2ahyxZkwCQFcbo--48" value="Prenotazione" style="whiteSpace=wrap;html=1;align=center;" parent="1" vertex="1">
          <mxGeometry x="320" y="340" width="100" height="40" as="geometry" />
        </mxCell>
        <mxCell id="59N4v2ahyxZkwCQFcbo--49" value="" style="endArrow=none;html=1;rounded=0;entryX=0;entryY=0.5;entryDx=0;entryDy=0;entryPerimeter=0;exitX=1;exitY=0.5;exitDx=0;exitDy=0;" parent="1" source="59N4v2ahyxZkwCQFcbo--47" target="59N4v2ahyxZkwCQFcbo--1" edge="1">
          <mxGeometry width="50" height="50" relative="1" as="geometry">
            <mxPoint x="441" y="300" as="sourcePoint" />
            <mxPoint x="491" y="250" as="targetPoint" />
          </mxGeometry>
        </mxCell>
        <mxCell id="59N4v2ahyxZkwCQFcbo--52" value="" style="endArrow=none;html=1;rounded=0;entryX=0.5;entryY=1;entryDx=0;entryDy=0;entryPerimeter=0;exitX=0.5;exitY=0;exitDx=0;exitDy=0;exitPerimeter=0;" parent="1" source="59N4v2ahyxZkwCQFcbo--48" target="59N4v2ahyxZkwCQFcbo--47" edge="1">
          <mxGeometry width="50" height="50" relative="1" as="geometry">
            <mxPoint x="460" y="340" as="sourcePoint" />
            <mxPoint x="450" y="290" as="targetPoint" />
          </mxGeometry>
        </mxCell>
        <mxCell id="59N4v2ahyxZkwCQFcbo--53" value="" style="endArrow=oval;html=1;rounded=0;endFill=0;" parent="1" edge="1">
          <mxGeometry width="50" height="50" relative="1" as="geometry">
            <mxPoint x="400" y="340" as="sourcePoint" />
            <mxPoint x="400" y="320" as="targetPoint" />
          </mxGeometry>
        </mxCell>
        <mxCell id="59N4v2ahyxZkwCQFcbo--54" value="istante" style="text;html=1;align=center;verticalAlign=middle;whiteSpace=wrap;rounded=0;" parent="1" vertex="1">
          <mxGeometry x="394" y="314" width="60" height="10" as="geometry" />
        </mxCell>
        <mxCell id="59N4v2ahyxZkwCQFcbo--55" value="" style="endArrow=oval;html=1;rounded=0;endFill=0;" parent="1" edge="1">
          <mxGeometry width="50" height="50" relative="1" as="geometry">
            <mxPoint x="320" y="345.83" as="sourcePoint" />
            <mxPoint x="290" y="345.83" as="targetPoint" />
          </mxGeometry>
        </mxCell>
        <mxCell id="59N4v2ahyxZkwCQFcbo--56" value="posti" style="text;html=1;align=center;verticalAlign=middle;whiteSpace=wrap;rounded=0;" parent="1" vertex="1">
          <mxGeometry x="239" y="340" width="60" height="10" as="geometry" />
        </mxCell>
        <mxCell id="59N4v2ahyxZkwCQFcbo--57" value="" style="endArrow=oval;html=1;rounded=0;endFill=0;" parent="1" edge="1">
          <mxGeometry width="50" height="50" relative="1" as="geometry">
            <mxPoint x="320" y="355.83" as="sourcePoint" />
            <mxPoint x="290" y="355.83" as="targetPoint" />
          </mxGeometry>
        </mxCell>
        <mxCell id="59N4v2ahyxZkwCQFcbo--58" value="data" style="text;html=1;align=center;verticalAlign=middle;whiteSpace=wrap;rounded=0;" parent="1" vertex="1">
          <mxGeometry x="241" y="350" width="60" height="10" as="geometry" />
        </mxCell>
        <mxCell id="59N4v2ahyxZkwCQFcbo--59" value="(0,N)" style="text;html=1;align=center;verticalAlign=middle;whiteSpace=wrap;rounded=0;" parent="1" vertex="1">
          <mxGeometry x="380" y="240" width="60" height="10" as="geometry" />
        </mxCell>
        <mxCell id="59N4v2ahyxZkwCQFcbo--60" value="(1,1)" style="text;html=1;align=center;verticalAlign=middle;whiteSpace=wrap;rounded=0;" parent="1" vertex="1">
          <mxGeometry x="355" y="280" width="60" height="10" as="geometry" />
        </mxCell>
        <mxCell id="59N4v2ahyxZkwCQFcbo--61" value="HotelPren" style="shape=rhombus;perimeter=rhombusPerimeter;whiteSpace=wrap;html=1;align=center;" parent="1" vertex="1">
          <mxGeometry x="102" y="240" width="90" height="40" as="geometry" />
        </mxCell>
        <mxCell id="59N4v2ahyxZkwCQFcbo--65" value="" style="endArrow=none;html=1;rounded=0;entryX=0.2;entryY=0;entryDx=0;entryDy=0;entryPerimeter=0;exitX=0.989;exitY=0.5;exitDx=0;exitDy=0;exitPerimeter=0;" parent="1" source="59N4v2ahyxZkwCQFcbo--61" target="59N4v2ahyxZkwCQFcbo--48" edge="1">
          <mxGeometry width="50" height="50" relative="1" as="geometry">
            <mxPoint x="250" y="260" as="sourcePoint" />
            <mxPoint x="300" y="260" as="targetPoint" />
            <Array as="points">
              <mxPoint x="280" y="260" />
              <mxPoint x="280" y="300" />
              <mxPoint x="340" y="300" />
            </Array>
          </mxGeometry>
        </mxCell>
        <mxCell id="59N4v2ahyxZkwCQFcbo--66" value="" style="endArrow=oval;html=1;rounded=0;endFill=0;" parent="1" source="59N4v2ahyxZkwCQFcbo--61" edge="1">
          <mxGeometry width="50" height="50" relative="1" as="geometry">
            <mxPoint x="217" y="215" as="sourcePoint" />
            <mxPoint x="181" y="220" as="targetPoint" />
          </mxGeometry>
        </mxCell>
        <mxCell id="59N4v2ahyxZkwCQFcbo--67" value="" style="endArrow=oval;html=1;rounded=0;endFill=0;exitX=0.715;exitY=0.183;exitDx=0;exitDy=0;exitPerimeter=0;" parent="1" source="59N4v2ahyxZkwCQFcbo--61" edge="1">
          <mxGeometry width="50" height="50" relative="1" as="geometry">
            <mxPoint x="237" y="204.99999999999994" as="sourcePoint" />
            <mxPoint x="181" y="230" as="targetPoint" />
          </mxGeometry>
        </mxCell>
        <mxCell id="59N4v2ahyxZkwCQFcbo--68" value="" style="endArrow=oval;html=1;rounded=0;endFill=0;exitX=0.578;exitY=0.058;exitDx=0;exitDy=0;exitPerimeter=0;" parent="1" source="59N4v2ahyxZkwCQFcbo--61" edge="1">
          <mxGeometry width="50" height="50" relative="1" as="geometry">
            <mxPoint x="169" y="255" as="sourcePoint" />
            <mxPoint x="181" y="210" as="targetPoint" />
          </mxGeometry>
        </mxCell>
        <mxCell id="59N4v2ahyxZkwCQFcbo--69" value="checkin" style="text;html=1;align=center;verticalAlign=middle;whiteSpace=wrap;rounded=0;" parent="1" vertex="1">
          <mxGeometry x="177" y="205" width="60" height="10" as="geometry" />
        </mxCell>
        <mxCell id="59N4v2ahyxZkwCQFcbo--70" value="checkout" style="text;html=1;align=center;verticalAlign=middle;whiteSpace=wrap;rounded=0;" parent="1" vertex="1">
          <mxGeometry x="181" y="215" width="60" height="10" as="geometry" />
        </mxCell>
        <mxCell id="59N4v2ahyxZkwCQFcbo--71" value="nstanze" style="text;html=1;align=center;verticalAlign=middle;whiteSpace=wrap;rounded=0;" parent="1" vertex="1">
          <mxGeometry x="178" y="225" width="60" height="10" as="geometry" />
        </mxCell>
        <mxCell id="59N4v2ahyxZkwCQFcbo--72" value="(0,1)" style="text;html=1;align=center;verticalAlign=middle;whiteSpace=wrap;rounded=0;" parent="1" vertex="1">
          <mxGeometry x="161" y="240" width="60" height="10" as="geometry" />
        </mxCell>
        <mxCell id="59N4v2ahyxZkwCQFcbo--73" value="Hotel" style="whiteSpace=wrap;html=1;align=center;" parent="1" vertex="1">
          <mxGeometry x="97" y="340" width="100" height="40" as="geometry" />
        </mxCell>
        <mxCell id="59N4v2ahyxZkwCQFcbo--75" value="(0,N)" style="text;html=1;align=center;verticalAlign=middle;whiteSpace=wrap;rounded=0;" parent="1" vertex="1">
          <mxGeometry x="137" y="280" width="60" height="10" as="geometry" />
        </mxCell>
        <mxCell id="59N4v2ahyxZkwCQFcbo--76" value="" style="endArrow=none;html=1;rounded=0;entryX=0.5;entryY=1;entryDx=0;entryDy=0;exitX=0.5;exitY=0;exitDx=0;exitDy=0;" parent="1" source="59N4v2ahyxZkwCQFcbo--73" target="59N4v2ahyxZkwCQFcbo--61" edge="1">
          <mxGeometry width="50" height="50" relative="1" as="geometry">
            <mxPoint x="167" y="320" as="sourcePoint" />
            <mxPoint x="217" y="270" as="targetPoint" />
          </mxGeometry>
        </mxCell>
        <mxCell id="59N4v2ahyxZkwCQFcbo--77" value="" style="endArrow=oval;html=1;rounded=0;endFill=0;" parent="1" edge="1">
          <mxGeometry width="50" height="50" relative="1" as="geometry">
            <mxPoint x="97" y="344.83" as="sourcePoint" />
            <mxPoint x="67" y="344.83" as="targetPoint" />
          </mxGeometry>
        </mxCell>
        <mxCell id="59N4v2ahyxZkwCQFcbo--78" value="nome" style="text;html=1;align=center;verticalAlign=middle;whiteSpace=wrap;rounded=0;" parent="1" vertex="1">
          <mxGeometry x="15" y="370" width="60" height="10" as="geometry" />
        </mxCell>
        <mxCell id="59N4v2ahyxZkwCQFcbo--79" value="" style="endArrow=oval;html=1;rounded=0;endFill=0;" parent="1" edge="1">
          <mxGeometry width="50" height="50" relative="1" as="geometry">
            <mxPoint x="97" y="355.83" as="sourcePoint" />
            <mxPoint x="67" y="355.83" as="targetPoint" />
          </mxGeometry>
        </mxCell>
        <mxCell id="59N4v2ahyxZkwCQFcbo--80" value="categoria" style="text;html=1;align=center;verticalAlign=middle;whiteSpace=wrap;rounded=0;" parent="1" vertex="1">
          <mxGeometry x="5" y="350" width="60" height="10" as="geometry" />
        </mxCell>
        <mxCell id="59N4v2ahyxZkwCQFcbo--81" value="" style="endArrow=oval;html=1;rounded=0;endFill=0;" parent="1" edge="1">
          <mxGeometry width="50" height="50" relative="1" as="geometry">
            <mxPoint x="97" y="365.83" as="sourcePoint" />
            <mxPoint x="67" y="365.83" as="targetPoint" />
          </mxGeometry>
        </mxCell>
        <mxCell id="59N4v2ahyxZkwCQFcbo--82" value="tariffa" style="text;html=1;align=center;verticalAlign=middle;whiteSpace=wrap;rounded=0;" parent="1" vertex="1">
          <mxGeometry x="15" y="360" width="60" height="10" as="geometry" />
        </mxCell>
        <mxCell id="59N4v2ahyxZkwCQFcbo--83" value="" style="endArrow=oval;html=1;rounded=0;endFill=0;" parent="1" edge="1">
          <mxGeometry width="50" height="50" relative="1" as="geometry">
            <mxPoint x="97" y="375.83" as="sourcePoint" />
            <mxPoint x="67" y="375.83" as="targetPoint" />
          </mxGeometry>
        </mxCell>
        <mxCell id="59N4v2ahyxZkwCQFcbo--84" value="kmCentro" style="text;html=1;align=center;verticalAlign=middle;whiteSpace=wrap;rounded=0;" parent="1" vertex="1">
          <mxGeometry x="4" y="340" width="60" height="10" as="geometry" />
        </mxCell>
        <mxCell id="59N4v2ahyxZkwCQFcbo--85" value="HotelInd" style="shape=rhombus;perimeter=rhombusPerimeter;whiteSpace=wrap;html=1;align=center;" parent="1" vertex="1">
          <mxGeometry x="65" y="519" width="90" height="40" as="geometry" />
        </mxCell>
        <mxCell id="59N4v2ahyxZkwCQFcbo--87" value="" style="endArrow=none;html=1;rounded=0;entryX=0.5;entryY=0;entryDx=0;entryDy=0;exitX=0.13;exitY=1;exitDx=0;exitDy=0;exitPerimeter=0;" parent="1" source="59N4v2ahyxZkwCQFcbo--73" target="59N4v2ahyxZkwCQFcbo--85" edge="1">
          <mxGeometry width="50" height="50" relative="1" as="geometry">
            <mxPoint x="139" y="390" as="sourcePoint" />
            <mxPoint x="510" y="350" as="targetPoint" />
          </mxGeometry>
        </mxCell>
        <mxCell id="59N4v2ahyxZkwCQFcbo--88" value="" style="endArrow=none;html=1;rounded=0;entryX=0.75;entryY=1;entryDx=0;entryDy=0;exitX=0.5;exitY=1;exitDx=0;exitDy=0;" parent="1" edge="1">
          <mxGeometry width="50" height="50" relative="1" as="geometry">
            <mxPoint x="110" y="559" as="sourcePoint" />
            <mxPoint x="905" y="280" as="targetPoint" />
            <Array as="points">
              <mxPoint x="110" y="600" />
              <mxPoint x="905" y="600" />
            </Array>
          </mxGeometry>
        </mxCell>
        <mxCell id="59N4v2ahyxZkwCQFcbo--89" value="(0,N)" style="text;html=1;align=center;verticalAlign=middle;whiteSpace=wrap;rounded=0;" parent="1" vertex="1">
          <mxGeometry x="60" y="559" width="60" height="10" as="geometry" />
        </mxCell>
        <mxCell id="59N4v2ahyxZkwCQFcbo--90" value="(1,1)" style="text;html=1;align=center;verticalAlign=middle;whiteSpace=wrap;rounded=0;" parent="1" vertex="1">
          <mxGeometry x="60" y="509" width="60" height="10" as="geometry" />
        </mxCell>
        <mxCell id="59N4v2ahyxZkwCQFcbo--91" value="Volo" style="whiteSpace=wrap;html=1;align=center;" parent="1" vertex="1">
          <mxGeometry x="320" y="490" width="100" height="40" as="geometry" />
        </mxCell>
        <mxCell id="59N4v2ahyxZkwCQFcbo--92" value="VoloPren" style="shape=rhombus;perimeter=rhombusPerimeter;whiteSpace=wrap;html=1;align=center;" parent="1" vertex="1">
          <mxGeometry x="325" y="415" width="90" height="40" as="geometry" />
        </mxCell>
        <mxCell id="59N4v2ahyxZkwCQFcbo--93" value="" style="endArrow=none;html=1;rounded=0;exitX=0.5;exitY=0;exitDx=0;exitDy=0;entryX=0.5;entryY=1;entryDx=0;entryDy=0;" parent="1" source="59N4v2ahyxZkwCQFcbo--92" target="59N4v2ahyxZkwCQFcbo--48" edge="1">
          <mxGeometry width="50" height="50" relative="1" as="geometry">
            <mxPoint x="360" y="420" as="sourcePoint" />
            <mxPoint x="410" y="370" as="targetPoint" />
          </mxGeometry>
        </mxCell>
        <mxCell id="59N4v2ahyxZkwCQFcbo--94" value="" style="endArrow=none;html=1;rounded=0;exitX=0.5;exitY=0;exitDx=0;exitDy=0;entryX=0.5;entryY=1;entryDx=0;entryDy=0;" parent="1" source="59N4v2ahyxZkwCQFcbo--91" target="59N4v2ahyxZkwCQFcbo--92" edge="1">
          <mxGeometry width="50" height="50" relative="1" as="geometry">
            <mxPoint x="380" y="425" as="sourcePoint" />
            <mxPoint x="380" y="390" as="targetPoint" />
          </mxGeometry>
        </mxCell>
        <mxCell id="59N4v2ahyxZkwCQFcbo--95" value="(1,N)" style="text;html=1;align=center;verticalAlign=middle;whiteSpace=wrap;rounded=0;" parent="1" vertex="1">
          <mxGeometry x="355" y="404" width="60" height="10" as="geometry" />
        </mxCell>
        <mxCell id="59N4v2ahyxZkwCQFcbo--96" value="(0,N)" style="text;html=1;align=center;verticalAlign=middle;whiteSpace=wrap;rounded=0;" parent="1" vertex="1">
          <mxGeometry x="355" y="455" width="60" height="10" as="geometry" />
        </mxCell>
        <mxCell id="59N4v2ahyxZkwCQFcbo--97" value="Velivolo" style="whiteSpace=wrap;html=1;align=center;" parent="1" vertex="1">
          <mxGeometry x="196" y="415" width="100" height="40" as="geometry" />
        </mxCell>
        <mxCell id="59N4v2ahyxZkwCQFcbo--98" value="Utilizza" style="shape=rhombus;perimeter=rhombusPerimeter;whiteSpace=wrap;html=1;align=center;" parent="1" vertex="1">
          <mxGeometry x="201" y="490" width="90" height="40" as="geometry" />
        </mxCell>
        <mxCell id="59N4v2ahyxZkwCQFcbo--99" value="" style="endArrow=none;html=1;rounded=0;entryX=0.5;entryY=1;entryDx=0;entryDy=0;exitX=0.5;exitY=0;exitDx=0;exitDy=0;" parent="1" source="59N4v2ahyxZkwCQFcbo--98" target="59N4v2ahyxZkwCQFcbo--97" edge="1">
          <mxGeometry width="50" height="50" relative="1" as="geometry">
            <mxPoint x="240" y="490" as="sourcePoint" />
            <mxPoint x="290" y="440" as="targetPoint" />
          </mxGeometry>
        </mxCell>
        <mxCell id="59N4v2ahyxZkwCQFcbo--100" value="" style="endArrow=none;html=1;rounded=0;entryX=0;entryY=0.5;entryDx=0;entryDy=0;exitX=1;exitY=0.5;exitDx=0;exitDy=0;" parent="1" source="59N4v2ahyxZkwCQFcbo--98" target="59N4v2ahyxZkwCQFcbo--91" edge="1">
          <mxGeometry width="50" height="50" relative="1" as="geometry">
            <mxPoint x="256" y="500" as="sourcePoint" />
            <mxPoint x="256" y="465" as="targetPoint" />
          </mxGeometry>
        </mxCell>
        <mxCell id="59N4v2ahyxZkwCQFcbo--101" value="" style="endArrow=oval;html=1;rounded=0;endFill=1;" parent="1" edge="1">
          <mxGeometry width="50" height="50" relative="1" as="geometry">
            <mxPoint x="206" y="415" as="sourcePoint" />
            <mxPoint x="206" y="365" as="targetPoint" />
          </mxGeometry>
        </mxCell>
        <mxCell id="59N4v2ahyxZkwCQFcbo--102" value="codice" style="text;html=1;align=center;verticalAlign=middle;whiteSpace=wrap;rounded=0;" parent="1" vertex="1">
          <mxGeometry x="198" y="359" width="60" height="10" as="geometry" />
        </mxCell>
        <mxCell id="59N4v2ahyxZkwCQFcbo--104" value="tipo" style="text;html=1;align=center;verticalAlign=middle;whiteSpace=wrap;rounded=0;" parent="1" vertex="1">
          <mxGeometry x="201" y="369" width="60" height="10" as="geometry" />
        </mxCell>
        <mxCell id="59N4v2ahyxZkwCQFcbo--106" value="eur_mil" style="text;html=1;align=center;verticalAlign=middle;whiteSpace=wrap;rounded=0;" parent="1" vertex="1">
          <mxGeometry x="231" y="389" width="60" height="10" as="geometry" />
        </mxCell>
        <mxCell id="59N4v2ahyxZkwCQFcbo--108" value="posti" style="text;html=1;align=center;verticalAlign=middle;whiteSpace=wrap;rounded=0;" parent="1" vertex="1">
          <mxGeometry x="214" y="379" width="60" height="10" as="geometry" />
        </mxCell>
        <mxCell id="59N4v2ahyxZkwCQFcbo--109" value="(0,N)" style="text;html=1;align=center;verticalAlign=middle;whiteSpace=wrap;rounded=0;" parent="1" vertex="1">
          <mxGeometry x="200" y="480" width="60" height="10" as="geometry" />
        </mxCell>
        <mxCell id="59N4v2ahyxZkwCQFcbo--110" value="(1,1)" style="text;html=1;align=center;verticalAlign=middle;whiteSpace=wrap;rounded=0;" parent="1" vertex="1">
          <mxGeometry x="260" y="516" width="60" height="10" as="geometry" />
        </mxCell>
        <mxCell id="59N4v2ahyxZkwCQFcbo--111" value="" style="endArrow=oval;html=1;rounded=0;endFill=1;" parent="1" edge="1">
          <mxGeometry width="50" height="50" relative="1" as="geometry">
            <mxPoint x="330" y="531" as="sourcePoint" />
            <mxPoint x="330" y="561" as="targetPoint" />
          </mxGeometry>
        </mxCell>
        <mxCell id="59N4v2ahyxZkwCQFcbo--112" value="" style="endArrow=oval;html=1;rounded=0;endFill=0;" parent="1" edge="1">
          <mxGeometry width="50" height="50" relative="1" as="geometry">
            <mxPoint x="340" y="531" as="sourcePoint" />
            <mxPoint x="340" y="552" as="targetPoint" />
          </mxGeometry>
        </mxCell>
        <mxCell id="59N4v2ahyxZkwCQFcbo--113" value="miglia" style="text;html=1;align=center;verticalAlign=middle;whiteSpace=wrap;rounded=0;" parent="1" vertex="1">
          <mxGeometry x="333" y="546" width="60" height="10" as="geometry" />
        </mxCell>
        <mxCell id="59N4v2ahyxZkwCQFcbo--115" value="codice" style="text;html=1;align=center;verticalAlign=middle;whiteSpace=wrap;rounded=0;" parent="1" vertex="1">
          <mxGeometry x="324" y="555" width="60" height="10" as="geometry" />
        </mxCell>
        <mxCell id="59N4v2ahyxZkwCQFcbo--116" value="Aeroporto" style="whiteSpace=wrap;html=1;align=center;" parent="1" vertex="1">
          <mxGeometry x="640" y="490" width="100" height="40" as="geometry" />
        </mxCell>
        <mxCell id="59N4v2ahyxZkwCQFcbo--117" value="Partenza" style="shape=rhombus;perimeter=rhombusPerimeter;whiteSpace=wrap;html=1;align=center;" parent="1" vertex="1">
          <mxGeometry x="484" y="460" width="90" height="40" as="geometry" />
        </mxCell>
        <mxCell id="59N4v2ahyxZkwCQFcbo--118" value="Arrivo" style="shape=rhombus;perimeter=rhombusPerimeter;whiteSpace=wrap;html=1;align=center;" parent="1" vertex="1">
          <mxGeometry x="484" y="520" width="90" height="40" as="geometry" />
        </mxCell>
        <mxCell id="59N4v2ahyxZkwCQFcbo--119" value="" style="endArrow=none;html=1;rounded=0;entryX=0;entryY=0.5;entryDx=0;entryDy=0;exitX=1;exitY=0.25;exitDx=0;exitDy=0;" parent="1" source="59N4v2ahyxZkwCQFcbo--91" target="59N4v2ahyxZkwCQFcbo--117" edge="1">
          <mxGeometry width="50" height="50" relative="1" as="geometry">
            <mxPoint x="430" y="490" as="sourcePoint" />
            <mxPoint x="470" y="470" as="targetPoint" />
            <Array as="points">
              <mxPoint x="460" y="500" />
              <mxPoint x="460" y="480" />
            </Array>
          </mxGeometry>
        </mxCell>
        <mxCell id="59N4v2ahyxZkwCQFcbo--120" value="" style="endArrow=none;html=1;rounded=0;entryX=0;entryY=0.5;entryDx=0;entryDy=0;exitX=1;exitY=0.75;exitDx=0;exitDy=0;" parent="1" source="59N4v2ahyxZkwCQFcbo--91" target="59N4v2ahyxZkwCQFcbo--118" edge="1">
          <mxGeometry width="50" height="50" relative="1" as="geometry">
            <mxPoint x="430" y="511" as="sourcePoint" />
            <mxPoint x="490" y="489" as="targetPoint" />
            <Array as="points">
              <mxPoint x="460" y="520" />
              <mxPoint x="460" y="540" />
            </Array>
          </mxGeometry>
        </mxCell>
        <mxCell id="59N4v2ahyxZkwCQFcbo--121" value="" style="endArrow=none;html=1;rounded=0;entryX=0;entryY=0.25;entryDx=0;entryDy=0;exitX=1;exitY=0.5;exitDx=0;exitDy=0;" parent="1" source="59N4v2ahyxZkwCQFcbo--117" target="59N4v2ahyxZkwCQFcbo--116" edge="1">
          <mxGeometry width="50" height="50" relative="1" as="geometry">
            <mxPoint x="430" y="531" as="sourcePoint" />
            <mxPoint x="490" y="549" as="targetPoint" />
            <Array as="points">
              <mxPoint x="600" y="480" />
              <mxPoint x="600" y="500" />
            </Array>
          </mxGeometry>
        </mxCell>
        <mxCell id="59N4v2ahyxZkwCQFcbo--122" value="" style="endArrow=none;html=1;rounded=0;entryX=0;entryY=0.75;entryDx=0;entryDy=0;exitX=1;exitY=0.5;exitDx=0;exitDy=0;" parent="1" source="59N4v2ahyxZkwCQFcbo--118" target="59N4v2ahyxZkwCQFcbo--116" edge="1">
          <mxGeometry width="50" height="50" relative="1" as="geometry">
            <mxPoint x="580" y="489" as="sourcePoint" />
            <mxPoint x="650" y="510" as="targetPoint" />
            <Array as="points">
              <mxPoint x="600" y="540" />
              <mxPoint x="600" y="520" />
            </Array>
          </mxGeometry>
        </mxCell>
        <mxCell id="59N4v2ahyxZkwCQFcbo--123" value="" style="endArrow=oval;html=1;rounded=0;endFill=0;exitX=0;exitY=1;exitDx=0;exitDy=0;" parent="1" source="59N4v2ahyxZkwCQFcbo--117" edge="1">
          <mxGeometry width="50" height="50" relative="1" as="geometry">
            <mxPoint x="494" y="490" as="sourcePoint" />
            <mxPoint x="480" y="500" as="targetPoint" />
          </mxGeometry>
        </mxCell>
        <mxCell id="59N4v2ahyxZkwCQFcbo--124" value="" style="endArrow=oval;html=1;rounded=0;endFill=0;exitX=1;exitY=0;exitDx=0;exitDy=0;" parent="1" source="59N4v2ahyxZkwCQFcbo--118" edge="1">
          <mxGeometry width="50" height="50" relative="1" as="geometry">
            <mxPoint x="517" y="500" as="sourcePoint" />
            <mxPoint x="570" y="510" as="targetPoint" />
          </mxGeometry>
        </mxCell>
        <mxCell id="59N4v2ahyxZkwCQFcbo--125" value="(1,1)" style="text;html=1;align=center;verticalAlign=middle;whiteSpace=wrap;rounded=0;" parent="1" vertex="1">
          <mxGeometry x="460" y="460" width="60" height="10" as="geometry" />
        </mxCell>
        <mxCell id="59N4v2ahyxZkwCQFcbo--126" value="(1,1)" style="text;html=1;align=center;verticalAlign=middle;whiteSpace=wrap;rounded=0;" parent="1" vertex="1">
          <mxGeometry x="460" y="550" width="60" height="10" as="geometry" />
        </mxCell>
        <mxCell id="59N4v2ahyxZkwCQFcbo--127" value="(0,N)" style="text;html=1;align=center;verticalAlign=middle;whiteSpace=wrap;rounded=0;" parent="1" vertex="1">
          <mxGeometry x="540" y="460" width="60" height="10" as="geometry" />
        </mxCell>
        <mxCell id="59N4v2ahyxZkwCQFcbo--128" value="(0,N)" style="text;html=1;align=center;verticalAlign=middle;whiteSpace=wrap;rounded=0;" parent="1" vertex="1">
          <mxGeometry x="540" y="550" width="60" height="10" as="geometry" />
        </mxCell>
        <mxCell id="59N4v2ahyxZkwCQFcbo--129" value="ora" style="text;html=1;align=center;verticalAlign=middle;whiteSpace=wrap;rounded=0;" parent="1" vertex="1">
          <mxGeometry x="460" y="500" width="60" height="10" as="geometry" />
        </mxCell>
        <mxCell id="59N4v2ahyxZkwCQFcbo--130" value="ora" style="text;html=1;align=center;verticalAlign=middle;whiteSpace=wrap;rounded=0;" parent="1" vertex="1">
          <mxGeometry x="554" y="504" width="60" height="10" as="geometry" />
        </mxCell>
        <mxCell id="59N4v2ahyxZkwCQFcbo--131" value="" style="endArrow=oval;html=1;rounded=0;endFill=1;" parent="1" edge="1">
          <mxGeometry width="50" height="50" relative="1" as="geometry">
            <mxPoint x="670" y="530" as="sourcePoint" />
            <mxPoint x="670" y="560" as="targetPoint" />
          </mxGeometry>
        </mxCell>
        <mxCell id="59N4v2ahyxZkwCQFcbo--132" value="" style="endArrow=oval;html=1;rounded=0;endFill=0;" parent="1" edge="1">
          <mxGeometry width="50" height="50" relative="1" as="geometry">
            <mxPoint x="680" y="530" as="sourcePoint" />
            <mxPoint x="680" y="551" as="targetPoint" />
          </mxGeometry>
        </mxCell>
        <mxCell id="59N4v2ahyxZkwCQFcbo--133" value="nome" style="text;html=1;align=center;verticalAlign=middle;whiteSpace=wrap;rounded=0;" parent="1" vertex="1">
          <mxGeometry x="673" y="545" width="60" height="10" as="geometry" />
        </mxCell>
        <mxCell id="59N4v2ahyxZkwCQFcbo--134" value="codice" style="text;html=1;align=center;verticalAlign=middle;whiteSpace=wrap;rounded=0;" parent="1" vertex="1">
          <mxGeometry x="664" y="554" width="60" height="10" as="geometry" />
        </mxCell>
        <mxCell id="59N4v2ahyxZkwCQFcbo--135" value="" style="endArrow=oval;html=1;rounded=0;endFill=0;" parent="1" edge="1">
          <mxGeometry width="50" height="50" relative="1" as="geometry">
            <mxPoint x="660" y="530" as="sourcePoint" />
            <mxPoint x="660" y="570" as="targetPoint" />
          </mxGeometry>
        </mxCell>
        <mxCell id="59N4v2ahyxZkwCQFcbo--136" value="" style="endArrow=oval;html=1;rounded=0;endFill=0;" parent="1" edge="1">
          <mxGeometry width="50" height="50" relative="1" as="geometry">
            <mxPoint x="650" y="530" as="sourcePoint" />
            <mxPoint x="650" y="580" as="targetPoint" />
          </mxGeometry>
        </mxCell>
        <mxCell id="59N4v2ahyxZkwCQFcbo--137" value="tassaD" style="text;html=1;align=center;verticalAlign=middle;whiteSpace=wrap;rounded=0;" parent="1" vertex="1">
          <mxGeometry x="656" y="565" width="60" height="10" as="geometry" />
        </mxCell>
        <mxCell id="59N4v2ahyxZkwCQFcbo--138" value="tassaA" style="text;html=1;align=center;verticalAlign=middle;whiteSpace=wrap;rounded=0;" parent="1" vertex="1">
          <mxGeometry x="646" y="575" width="60" height="10" as="geometry" />
        </mxCell>
        <mxCell id="59N4v2ahyxZkwCQFcbo--139" value="CittaAP" style="shape=rhombus;perimeter=rhombusPerimeter;whiteSpace=wrap;html=1;align=center;" parent="1" vertex="1">
          <mxGeometry x="645" y="340" width="90" height="40" as="geometry" />
        </mxCell>
        <mxCell id="59N4v2ahyxZkwCQFcbo--140" value="AP_Vicino" style="shape=rhombus;perimeter=rhombusPerimeter;whiteSpace=wrap;html=1;align=center;" parent="1" vertex="1">
          <mxGeometry x="127" y="555" width="90" height="40" as="geometry" />
        </mxCell>
        <mxCell id="59N4v2ahyxZkwCQFcbo--142" value="" style="endArrow=none;html=1;rounded=0;entryX=1;entryY=0.5;entryDx=0;entryDy=0;" parent="1" target="59N4v2ahyxZkwCQFcbo--140" edge="1">
          <mxGeometry width="50" height="50" relative="1" as="geometry">
            <mxPoint x="730" y="530" as="sourcePoint" />
            <mxPoint x="217" y="565" as="targetPoint" />
            <Array as="points">
              <mxPoint x="730" y="590" />
              <mxPoint x="250" y="590" />
              <mxPoint x="250" y="575" />
            </Array>
          </mxGeometry>
        </mxCell>
        <mxCell id="59N4v2ahyxZkwCQFcbo--143" value="" style="endArrow=oval;html=1;rounded=0;endFill=0;" parent="1" edge="1">
          <mxGeometry width="50" height="50" relative="1" as="geometry">
            <mxPoint x="215.76" y="415" as="sourcePoint" />
            <mxPoint x="216" y="375" as="targetPoint" />
          </mxGeometry>
        </mxCell>
        <mxCell id="59N4v2ahyxZkwCQFcbo--144" value="" style="endArrow=oval;html=1;rounded=0;endFill=0;" parent="1" edge="1">
          <mxGeometry width="50" height="50" relative="1" as="geometry">
            <mxPoint x="225.76" y="415" as="sourcePoint" />
            <mxPoint x="226" y="385" as="targetPoint" />
          </mxGeometry>
        </mxCell>
        <mxCell id="59N4v2ahyxZkwCQFcbo--145" value="" style="endArrow=oval;html=1;rounded=0;endFill=0;" parent="1" edge="1">
          <mxGeometry width="50" height="50" relative="1" as="geometry">
            <mxPoint x="235.76" y="415" as="sourcePoint" />
            <mxPoint x="236" y="395" as="targetPoint" />
          </mxGeometry>
        </mxCell>
        <mxCell id="59N4v2ahyxZkwCQFcbo--146" value="" style="endArrow=none;html=1;rounded=0;exitX=0.5;exitY=0;exitDx=0;exitDy=0;entryX=0.75;entryY=1;entryDx=0;entryDy=0;" parent="1" source="59N4v2ahyxZkwCQFcbo--140" target="59N4v2ahyxZkwCQFcbo--73" edge="1">
          <mxGeometry width="50" height="50" relative="1" as="geometry">
            <mxPoint x="170" y="530" as="sourcePoint" />
            <mxPoint x="170" y="390" as="targetPoint" />
          </mxGeometry>
        </mxCell>
        <mxCell id="59N4v2ahyxZkwCQFcbo--149" value="(1,1)" style="text;html=1;align=center;verticalAlign=middle;whiteSpace=wrap;rounded=0;" parent="1" vertex="1">
          <mxGeometry x="161" y="546" width="60" height="10" as="geometry" />
        </mxCell>
        <mxCell id="59N4v2ahyxZkwCQFcbo--150" value="(0,N)" style="text;html=1;align=center;verticalAlign=middle;whiteSpace=wrap;rounded=0;" parent="1" vertex="1">
          <mxGeometry x="181" y="585" width="60" height="10" as="geometry" />
        </mxCell>
        <mxCell id="59N4v2ahyxZkwCQFcbo--151" value="" style="endArrow=none;html=1;rounded=0;exitX=0.5;exitY=0;exitDx=0;exitDy=0;entryX=0.5;entryY=1;entryDx=0;entryDy=0;" parent="1" source="59N4v2ahyxZkwCQFcbo--116" target="59N4v2ahyxZkwCQFcbo--139" edge="1">
          <mxGeometry width="50" height="50" relative="1" as="geometry">
            <mxPoint x="750" y="440" as="sourcePoint" />
            <mxPoint x="800" y="390" as="targetPoint" />
          </mxGeometry>
        </mxCell>
        <mxCell id="59N4v2ahyxZkwCQFcbo--152" value="" style="endArrow=none;html=1;rounded=0;entryX=1;entryY=0.5;entryDx=0;entryDy=0;exitX=0;exitY=0.5;exitDx=0;exitDy=0;" parent="1" source="59N4v2ahyxZkwCQFcbo--27" target="59N4v2ahyxZkwCQFcbo--139" edge="1">
          <mxGeometry width="50" height="50" relative="1" as="geometry">
            <mxPoint x="930" y="350" as="sourcePoint" />
            <mxPoint x="820" y="380" as="targetPoint" />
            <Array as="points">
              <mxPoint x="910" y="360" />
              <mxPoint x="910" y="350" />
              <mxPoint x="900" y="350" />
              <mxPoint x="900" y="360" />
            </Array>
          </mxGeometry>
        </mxCell>
        <mxCell id="59N4v2ahyxZkwCQFcbo--153" value="(0,N)" style="text;html=1;align=center;verticalAlign=middle;whiteSpace=wrap;rounded=0;" parent="1" vertex="1">
          <mxGeometry x="710" y="340" width="60" height="10" as="geometry" />
        </mxCell>
        <mxCell id="59N4v2ahyxZkwCQFcbo--154" value="(1,1)" style="text;html=1;align=center;verticalAlign=middle;whiteSpace=wrap;rounded=0;" parent="1" vertex="1">
          <mxGeometry x="680" y="380" width="60" height="10" as="geometry" />
        </mxCell>
        <mxCell id="59N4v2ahyxZkwCQFcbo--156" value="" style="endArrow=oval;html=1;rounded=0;endFill=1;" parent="1" edge="1">
          <mxGeometry width="50" height="50" relative="1" as="geometry">
            <mxPoint x="125" y="390" as="sourcePoint" />
            <mxPoint x="95" y="390" as="targetPoint" />
          </mxGeometry>
        </mxCell>
        <mxCell id="59N4v2ahyxZkwCQFcbo--157" value="" style="endArrow=oval;html=1;rounded=0;endFill=1;" parent="1" edge="1">
          <mxGeometry width="50" height="50" relative="1" as="geometry">
            <mxPoint x="412" y="332" as="sourcePoint" />
            <mxPoint x="357" y="332" as="targetPoint" />
          </mxGeometry>
        </mxCell>
        <mxCell id="59N4v2ahyxZkwCQFcbo--158" value="" style="endArrow=oval;html=1;rounded=0;endFill=0;exitX=1;exitY=0;exitDx=0;exitDy=0;" parent="1" source="59N4v2ahyxZkwCQFcbo--140" edge="1">
          <mxGeometry width="50" height="50" relative="1" as="geometry">
            <mxPoint x="231" y="538.5" as="sourcePoint" />
            <mxPoint x="220" y="560" as="targetPoint" />
          </mxGeometry>
        </mxCell>
        <mxCell id="59N4v2ahyxZkwCQFcbo--159" value="km" style="text;html=1;align=center;verticalAlign=middle;whiteSpace=wrap;rounded=0;" parent="1" vertex="1">
          <mxGeometry x="205" y="555" width="60" height="10" as="geometry" />
        </mxCell>
        <mxCell id="59N4v2ahyxZkwCQFcbo--160" value="" style="endArrow=oval;html=1;rounded=0;endFill=1;exitX=1;exitY=0.25;exitDx=0;exitDy=0;" parent="1" edge="1">
          <mxGeometry width="50" height="50" relative="1" as="geometry">
            <mxPoint x="840.5" y="229.83" as="sourcePoint" />
            <mxPoint x="940" y="270" as="targetPoint" />
            <Array as="points">
              <mxPoint x="940" y="230" />
            </Array>
          </mxGeometry>
        </mxCell>
        <mxCell id="ET8HAU3Y4JLg6cn1kDlP-1" value="" style="endArrow=oval;html=1;rounded=0;endFill=1;" edge="1" parent="1">
          <mxGeometry width="50" height="50" relative="1" as="geometry">
            <mxPoint x="1100" y="340" as="sourcePoint" />
            <mxPoint x="1010" y="390" as="targetPoint" />
            <Array as="points">
              <mxPoint x="1100" y="390" />
            </Array>
          </mxGeometry>
        </mxCell>
      </root>
    </mxGraphModel>
  </diagram>
</mxfile>
